<svg width="613" height="435" viewBox="0 0 613 435" fill="none" xmlns="http://www.w3.org/2000/svg">
<g id="Get ready to school with kid">
<g id="Path 354">
<path id="Mask" fill-rule="evenodd" clip-rule="evenodd" d="M40.24 363.212C91.6888 353.762 176.867 358.745 282.705 359.963C388.542 361.182 444.378 352.026 530.477 352C616.577 351.974 651.41 388.029 555.266 398.969C459.121 409.909 423.693 437.785 307.429 434.774C191.166 431.762 165.947 398.969 70.3666 398.969C-25.214 398.969 -11.2089 372.663 40.24 363.212Z" fill="#D6DCFF"/>
<mask id="mask0" mask-type="alpha" maskUnits="userSpaceOnUse" x="0" y="352" width="613" height="83">
<path id="Mask_2" fill-rule="evenodd" clip-rule="evenodd" d="M40.24 363.212C91.6888 353.762 176.867 358.745 282.705 359.963C388.542 361.182 444.378 352.026 530.477 352C616.577 351.974 651.41 388.029 555.266 398.969C459.121 409.909 423.693 437.785 307.429 434.774C191.166 431.762 165.947 398.969 70.3666 398.969C-25.214 398.969 -11.2089 372.663 40.24 363.212Z" fill="white"/>
</mask>
<g mask="url(#mask0)">
<path id="Path 354_2" d="M52.9806 356.338C52.9806 356.338 1.01943 396.849 52.9806 392.417C104.942 387.986 186.981 323.031 210.492 351.461C234.003 379.89 214.994 383.762 193.984 398.613C172.974 413.464 120.698 398.152 157.341 387.498C193.984 376.843 157.967 359.87 113.946 387.498C69.925 415.126 192.124 476.136 294.857 440.017C397.589 403.898 539.507 335.566 450.106 339.801C360.706 344.035 331.404 409.728 276.701 398.613C221.998 387.498 258.901 371.427 307.95 347.217C356.999 323.007 573.411 295.821 552.246 347.217C531.081 398.613 408.488 378.733 418.751 440.017C429.014 501.301 551.635 398.613 584.9 360.81C618.166 323.007 708.9 404.961 626.086 435.504C543.272 466.047 280.632 487.872 264.321 453.548C248.01 419.224 256.465 409.995 234.003 408.244C211.541 406.494 195.985 424.067 157.467 424.067" stroke="white" stroke-width="2" stroke-linecap="round" stroke-linejoin="round"/>
</g>
</g>
<g id="Group 66">
<rect id="Rectangle Copy 26" x="128" y="1" width="93.5802" height="234.015" stroke="#D6DCFF" stroke-width="2"/>
<rect id="Rectangle Copy 29" x="238" y="1" width="93.5802" height="234.015" stroke="#D6DCFF" stroke-width="2"/>
<rect id="Rectangle Copy 30" x="348" y="1" width="93.5802" height="234.015" stroke="#D6DCFF" stroke-width="2"/>
<rect id="Rectangle Copy 33" x="458" y="1" width="93.5802" height="234.015" stroke="#D6DCFF" stroke-width="2"/>
</g>
<g id="Group 69">
<g id="Path 282">
<path fill-rule="evenodd" clip-rule="evenodd" d="M244.77 141.903L254.29 153.229C254.29 153.229 317.735 121.495 326.328 116.107C334.922 110.719 367.165 113.426 367.165 116.107C367.165 117.715 364.834 117.779 360.114 117.631C358.111 117.567 352.8 117.631 352.8 117.631C352.8 117.631 368 120.261 368 121.813C368 123.484 366.867 123.497 362.786 123.481C359.885 123.469 351.037 122.645 351.037 122.645C351.037 122.645 364.647 127.099 364.133 128.333C363.659 129.473 360.186 128.984 353.801 127.841C352.015 127.521 347.792 127.102 347.792 127.102C347.792 127.102 357.083 131.52 354.907 133.416C354.064 134.15 349.679 132.183 344.904 131.52C337.767 130.53 329.452 130.547 328.316 131.52C325.202 134.188 278.515 176.293 261.642 178.76C244.77 181.227 225 158.333 225 158.333" fill="white"/>
<path d="M244.77 141.903L254.29 153.229C254.29 153.229 317.735 121.495 326.328 116.107C334.922 110.719 367.165 113.426 367.165 116.107C367.165 117.715 364.834 117.779 360.114 117.631C358.111 117.567 352.8 117.631 352.8 117.631C352.8 117.631 368 120.261 368 121.813C368 123.484 366.867 123.497 362.786 123.481C359.885 123.469 351.037 122.645 351.037 122.645C351.037 122.645 364.647 127.099 364.133 128.333C363.659 129.473 360.186 128.984 353.801 127.841C352.015 127.521 347.792 127.102 347.792 127.102C347.792 127.102 357.083 131.52 354.907 133.416C354.064 134.15 349.679 132.183 344.904 131.52C337.767 130.53 329.452 130.547 328.316 131.52C325.202 134.188 278.515 176.293 261.642 178.76C244.77 181.227 225 158.333 225 158.333" stroke="#333333" stroke-width="2" stroke-linecap="round" stroke-linejoin="round"/>
</g>
<path id="Path 286" fill-rule="evenodd" clip-rule="evenodd" d="M110.548 355.48C110.548 355.48 132 361.318 132 369H97.9125C97.9125 369 78.9824 316.332 78.0848 311.648C77.1873 306.965 83.6433 302.782 86.5149 309.53C89.3865 316.278 110.548 355.48 110.548 355.48Z" fill="#333333"/>
<path id="Path 285" fill-rule="evenodd" clip-rule="evenodd" d="M148.763 324.021H116.364L110.88 354.632L102.634 362L85 310.268C85 310.268 88.386 301 102.634 301C116.881 301 153 304.727 153 304.727L148.763 324.021Z" fill="white" stroke="#333333" stroke-width="2" stroke-linecap="round"/>
<path id="Path 288" fill-rule="evenodd" clip-rule="evenodd" d="M173.66 359.604C173.66 359.604 165.995 362.796 170.938 370H252C252 370 250.012 357 228.194 357L173.66 359.604Z" fill="#333333"/>
<path id="Path 287" fill-rule="evenodd" clip-rule="evenodd" d="M175.635 329.769C175.635 329.769 177.152 336.52 173.671 346.223C170.19 355.926 162.883 366 188.758 366C214.633 366 225.071 366 225.071 366C225.071 366 225.895 359.41 228 357.331C228 357.331 202.239 342.418 202.239 337.148C202.239 331.878 202.239 326 202.239 326L175.635 329.769Z" fill="white" stroke="#333333" stroke-width="2" stroke-linecap="round"/>
<path id="Path 280" fill-rule="evenodd" clip-rule="evenodd" d="M72.8229 238.486C72.8229 238.486 66.0288 297.264 115.326 303.415L147.395 307.155V329.858C147.395 329.858 224.111 330.792 244.742 325.577C265.373 320.362 271.925 303.415 267.852 291.575C263.78 279.735 238.954 268.684 238.954 268.684C238.954 268.684 257.062 235.126 260.987 221.905C264.912 208.685 252.152 194 238.954 194C225.757 194 163.358 210.673 163.358 210.673L72.8229 238.486Z" fill="white" stroke="#333333" stroke-width="2" stroke-linecap="round" stroke-linejoin="round"/>
<path id="Path 289" d="M149 307L222 297" stroke="#333333" stroke-width="2" stroke-linecap="round"/>
<path id="Path 292" d="M114 239V239C116.256 270.314 144.358 293.301 175.497 289.303L229.629 282.353C237.63 281.326 244.929 287.033 245.862 295.046V295.046C246.827 303.329 240.617 310.714 232.291 311.184L147.113 316" stroke="#D6DCFF" stroke-width="2"/>
<path id="Path 279" fill-rule="evenodd" clip-rule="evenodd" d="M169.805 81C169.805 81 145.923 83.3003 119.393 114.447C92.8635 145.595 70 238.165 70 238.165C70 238.165 92.4896 251.135 125.845 242.635C159.2 234.136 169.805 209.525 169.805 209.525C169.805 209.525 211.973 136.308 213.895 121.711C215.816 107.114 216.769 95.6681 203.242 89.8251C189.715 83.9821 169.805 81 169.805 81Z" fill="#86162C"/>
<g id="Group 60">
<path id="Path 277" fill-rule="evenodd" clip-rule="evenodd" d="M182.965 72.528C182.965 72.528 157.374 43.1238 159.11 30.2526C160.847 17.3815 170.983 16.2011 170.983 16.2011C170.983 16.2011 176.207 -2.21221 195.034 1.67878C213.862 5.56977 232.457 3.27953 234.283 9.74034C236.11 16.2011 228.33 16.2011 228.33 16.2011C228.33 16.2011 238.324 23.7413 230.246 30.2526C226.71 33.1027 219.951 42.9413 207.471 54.1979C200.943 60.0862 182.965 72.528 182.965 72.528Z" fill="#333333"/>
<path id="Path 275" fill-rule="evenodd" clip-rule="evenodd" d="M226.756 23.8953C226.756 23.8953 232.164 31.8548 232.164 37.873C232.164 43.8913 232.822 48.1365 234.563 51.8582C236.305 55.5799 238.232 58.6217 237.902 59.6857C237.572 60.7496 233.609 61.4383 233.609 61.4383C233.609 61.4383 236.778 73.3619 234.563 77.5412C232.348 81.7206 221.461 81.8981 209.148 79.7197C206.202 85.7315 204.225 92.2823 204.225 92.2823C204.225 92.2823 208.376 114.624 196.111 116.167C183.847 117.71 178.889 84.3121 170.467 80.9267C178.055 74.1264 194.595 59.6857 194.595 59.6857C194.595 59.6857 188.019 45.5966 196.111 45.5966C204.203 45.5966 199.303 55.1078 204.225 55.1078V36.1362C204.225 36.1362 209.148 35.7928 209.148 26.1285C219.444 26.659 226.756 23.8953 226.756 23.8953Z" fill="white" stroke="#333333" stroke-width="2" stroke-linecap="round"/>
<path id="Path 276" fill-rule="evenodd" clip-rule="evenodd" d="M205.007 51.8636C205.007 51.8636 206.596 62.265 209.046 62.265C211.496 62.265 216.058 62.265 217.228 66.173C218.398 70.0811 221.967 68.3231 223.221 64.7252C224.476 61.1273 233.609 61.4383 233.609 61.4383C233.609 61.4383 242.007 83.3684 233.609 84.7119C225.211 86.0554 212.45 84.3086 209.046 79.9833C205.642 75.658 200.669 51.8636 200.669 51.8636H205.007Z" fill="#333333"/>
<path id="Path 278" d="M195.004 51.072L199.202 55.9895" stroke="#333333" stroke-width="2" stroke-linecap="round"/>
<path id="Path 295" fill-rule="evenodd" clip-rule="evenodd" d="M233.34 66.8009L234.631 72.528C234.631 72.528 227.754 71.373 225.787 68.5095L233.34 66.8009Z" fill="white" stroke="#333333" stroke-width="2" stroke-linecap="round"/>
</g>
<path id="Path 281" fill-rule="evenodd" clip-rule="evenodd" d="M212.001 97L248 142.045L220.586 168L194 146.539L212.001 97Z" fill="#86162C"/>
<g id="Path 283">
<path fill-rule="evenodd" clip-rule="evenodd" d="M330.53 126L338.303 118.477C338.303 118.477 348.001 115.449 351.633 113.291C355.265 111.133 351.633 110.101 341.081 111.983C330.53 113.864 324 118.477 324 118.477" fill="white"/>
<path d="M330.53 126L338.303 118.477C338.303 118.477 348.001 115.449 351.633 113.291C355.265 111.133 351.633 110.101 341.081 111.983C330.53 113.864 324 118.477 324 118.477" stroke="#333333" stroke-width="2" stroke-linecap="round"/>
</g>
<path id="Path 284" d="M164.734 107C164.734 107 182.416 154.203 186 161.437L151.172 179C151.172 179 131.704 137.927 129 127.077" stroke="white" stroke-width="2" stroke-linecap="round" stroke-linejoin="round"/>
<g id="Path 282_2">
<path fill-rule="evenodd" clip-rule="evenodd" d="M184.975 163.611L192.382 176.363C192.382 176.363 260.282 156.255 269.668 152.463C274.422 150.543 283.337 150.893 291.694 151.744C297.727 152.359 304.741 152.381 307.256 153.438C308.133 153.807 308.133 156.024 304.518 156.024C300.903 156.024 297.5 156.237 293.531 156.886C293.697 158.067 296.097 160.515 293.531 161.091C294.304 162.543 294.667 164.866 292.619 165.711C291.781 169.391 290.341 171.048 287.534 171.395C280.598 172.253 275.097 169.408 268.958 167.916C265.432 169.992 212.224 203.169 195.199 202.662C178.174 202.156 161.115 175.015 161.115 175.015" fill="white"/>
<path d="M184.975 163.611L192.382 176.363C192.382 176.363 260.282 156.255 269.668 152.463C274.422 150.543 283.337 150.893 291.694 151.744C297.727 152.359 304.741 152.381 307.256 153.438C308.133 153.807 308.133 156.024 304.518 156.024C300.903 156.024 297.5 156.237 293.531 156.886C293.697 158.067 296.097 160.515 293.531 161.091C294.304 162.543 294.667 164.866 292.619 165.711C291.781 169.391 290.341 171.048 287.534 171.395C280.598 172.253 275.097 169.408 268.958 167.916C265.432 169.992 212.224 203.169 195.199 202.662C178.174 202.156 161.115 175.015 161.115 175.015" stroke="#333333" stroke-width="2" stroke-linecap="round"/>
</g>
<path id="Path 293" d="M186 246.678L229.042 215.303C231.797 213.294 235.477 213.097 238.431 214.799V214.799C242.596 217.199 243.997 222.54 241.546 226.674L220.604 262" stroke="#D6DCFF" stroke-width="2"/>
<path id="Path 290" d="M238 268L160 235" stroke="#333333" stroke-width="2" stroke-linecap="round"/>
<path id="Path 291" d="M200 252L225 226" stroke="#333333" stroke-width="2" stroke-linecap="round"/>
<path id="Path 325" d="M353 117C353 117 349.19 126.958 346 129" stroke="#333333" stroke-width="2" stroke-linecap="round"/>
</g>
<g id="Group 82">
<g id="Group 79">
<path id="Path 274" fill-rule="evenodd" clip-rule="evenodd" d="M363.701 235.3C365.738 238.529 387.873 241.642 404.27 242.152C420.668 242.662 408.771 207.252 408.771 207.252L396.19 209.021L396.995 230.621C396.995 230.621 361.663 232.071 363.701 235.3Z" fill="white" stroke="#1D70D3" stroke-width="2" stroke-linecap="round"/>
<path id="Path 349" fill-rule="evenodd" clip-rule="evenodd" d="M383.552 328.262C383.552 328.262 379.908 364.739 393.451 369.658C406.995 374.578 462.487 349.773 462.487 349.773C462.487 349.773 468.805 336.906 462.018 328.809L423.84 336.093L423.114 329.351L383.552 328.262Z" fill="white" stroke="#333333" stroke-width="2" stroke-linecap="round"/>
<path id="Path 351" fill-rule="evenodd" clip-rule="evenodd" d="M510.94 332.78C510.94 332.78 522.663 328.803 529.595 328.803C536.527 328.803 539.165 340.069 539.165 345.78C539.165 351.491 533.373 351.072 533.373 361.813C533.373 372.553 522.159 374.63 519.068 375.589C514.864 376.894 509.602 373.703 510.165 371.078C511.114 366.646 516.185 359.003 514.416 356.024C511.6 351.281 510.94 332.78 510.94 332.78Z" fill="#333333"/>
<path id="Path 349_2" fill-rule="evenodd" clip-rule="evenodd" d="M444.252 336.658C444.252 336.658 448.272 373.094 462.542 375.091C476.812 377.087 521.716 352.132 521.716 352.132C521.716 352.132 526.091 339.289 517.767 332.78L483.176 336.658L483.176 329.498L444.252 336.658Z" fill="white" stroke="#333333" stroke-width="2" stroke-linecap="round"/>
<path id="Path 350" d="M483.176 336.658L481.906 348.157" stroke="#333333" stroke-width="2" stroke-linecap="round"/>
<path id="Path 348" fill-rule="evenodd" clip-rule="evenodd" d="M472.011 239.208C472.011 239.208 482.838 254.061 478.698 278.722C483.091 304.681 487.483 330.639 487.483 330.639C487.483 330.639 464.266 342.737 439.918 337.944L429.472 297.903L421.762 338.578C421.762 338.578 398.532 344.029 381.208 334.351L398.12 248.743L472.011 239.208Z" fill="#86162C"/>
<path id="Path 272" fill-rule="evenodd" clip-rule="evenodd" d="M418.104 152.467C418.104 152.467 399.518 157.743 395.324 167.201C391.131 176.659 386.009 208.827 386.009 208.827L401.126 208.481C401.126 208.481 402.43 246.507 404.863 249.445C407.296 252.384 464.683 244.114 471.307 243.183C477.931 242.252 468.379 197.251 468.379 197.251L487.083 194.622C487.083 194.622 477.068 164.582 470.323 156.661C463.578 148.74 435.283 150.053 435.283 150.053L418.104 152.467Z" fill="white" stroke="#333333" stroke-width="2" stroke-linecap="round"/>
<path id="Path 341" d="M464.816 197.608L458.253 198.531L452.488 171.881" stroke="#333333" stroke-width="2" stroke-linecap="round"/>
<path id="Path 342" d="M401.24 208.311L399.431 181.489" stroke="#1D70D3" stroke-width="2" stroke-linecap="round"/>
<g id="Group 80">
<path id="Path 339" fill-rule="evenodd" clip-rule="evenodd" d="M417.118 168.202L433.368 167.065L435.957 169.394L427.48 177.485L433.498 215.703L423.158 227.218L417.067 218.601L421.95 177.872L414.649 170.884L417.118 168.202Z" fill="#86162C"/>
<g id="Path 340">
<path fill-rule="evenodd" clip-rule="evenodd" d="M421.101 177.885L425.365 177.587L421.101 177.885Z" fill="#FFDC84"/>
<path d="M421.101 177.885L425.365 177.587" stroke="white" stroke-width="2" stroke-linecap="round" stroke-linejoin="round"/>
</g>
</g>
<path id="Path 338" fill-rule="evenodd" clip-rule="evenodd" d="M418.64 150.191L408.555 155.58L411.263 174.849L423.52 161.316L440.549 170.733L447.41 150.119L437.003 145.503L418.64 150.191Z" fill="white" stroke="#333333" stroke-width="2" stroke-linecap="round"/>
<g id="Group 56">
<g id="Path 266">
<path fill-rule="evenodd" clip-rule="evenodd" d="M444.002 112.228C444.002 112.228 451.972 109.264 450.433 118.203C448.894 127.142 442.63 123.241 442.63 123.241L437.382 134.469C437.382 134.469 437.346 149.255 441.006 151.24C436.718 156.799 423.4 168.085 423.4 168.085L414.008 156.75C414.008 156.75 419.214 154.252 417.79 144.119" fill="white"/>
<path d="M444.002 112.228C444.002 112.228 451.972 109.264 450.433 118.203C448.894 127.142 442.63 123.241 442.63 123.241L437.382 134.469C437.382 134.469 437.346 149.255 441.006 151.24C436.718 156.799 423.4 168.085 423.4 168.085L414.008 156.75C414.008 156.75 419.214 154.252 417.79 144.119" stroke="#333333" stroke-width="2" stroke-linecap="round"/>
</g>
<path id="Path 268" d="M443.074 119.264L446.757 116.727" stroke="#333333" stroke-width="2" stroke-linecap="round"/>
<g id="Path 246">
<path fill-rule="evenodd" clip-rule="evenodd" d="M444.002 112.228L444.172 106.025L433.434 86.7069L395.172 101.761C395.172 101.761 396.944 114.372 398.444 125.048C399.945 135.723 403.161 144.292 414.543 144.187C425.924 144.083 433.434 136.9 433.434 136.9" fill="white"/>
<path d="M444.002 112.228L444.172 106.025L433.434 86.7069L395.172 101.761C395.172 101.761 396.944 114.372 398.444 125.048C399.945 135.723 403.161 144.292 414.543 144.187C425.924 144.083 433.434 136.9 433.434 136.9" stroke="#333333" stroke-width="2" stroke-linecap="round"/>
</g>
<g id="Group 78">
<path id="Path 269" d="M405.227 121.662C405.227 121.662 406.369 122.669 405.63 124.527C404.89 126.384 403.271 127.567 406.394 128.184" stroke="#333333" stroke-width="2" stroke-linecap="round"/>
<path id="Path 270" fill-rule="evenodd" clip-rule="evenodd" d="M408.3 132.026C408.3 132.026 418.353 130.124 421.744 129.042C421.744 129.042 421.999 135.551 415.592 136.94C409.186 138.329 408.3 132.026 408.3 132.026Z" fill="#D6DCFF"/>
</g>
<path id="Path 267" fill-rule="evenodd" clip-rule="evenodd" d="M436.967 79.4178C436.967 79.4178 447.967 81.3635 448.311 92.8103C448.655 104.257 447.323 111.593 447.323 111.593L443.635 112.273C443.635 112.273 443.079 118.229 440.62 115.555C438.16 112.881 437.704 106.343 436.639 102.06C432.495 103.303 429.048 101.307 426.325 95.9003C423.276 101.203 413.69 105.678 413.312 102.987C408.431 105.814 396.012 110.455 394.815 101.939C389.625 103.073 385.121 96.1503 391.596 88.8498C398.071 81.5492 413.758 72.4109 424.2 72.7169C434.642 73.0229 436.967 79.4178 436.967 79.4178Z" fill="#333333"/>
</g>
<path id="Path 352" d="M492.955 335.27C492.955 335.27 501.53 348.07 498.672 363.971" stroke="#333333" stroke-width="2" stroke-linecap="round"/>
</g>
<path id="Path 343" fill-rule="evenodd" clip-rule="evenodd" d="M407.717 274.338C407.717 274.338 406.639 254.276 422.718 244.78C438.797 235.284 400.335 227.392 400.335 227.392L407.717 274.338Z" fill="white" stroke="#333333" stroke-width="2" stroke-linecap="round"/>
<path id="Path 344" fill-rule="evenodd" clip-rule="evenodd" d="M402.344 276.355L418.383 219.416L370.833 214.772L356.993 258.105L402.344 276.355Z" fill="#0ACC94"/>
<g id="Group 81">
<path id="Rectangle" fill-rule="evenodd" clip-rule="evenodd" d="M261.402 314.723L282.282 319.079L259.695 398.138C258.665 401.742 254.772 403.693 251.268 402.361C248.399 401.27 246.709 398.296 247.24 395.272L261.402 314.723Z" fill="#D6DCFF"/>
<path id="Rectangle_2" fill-rule="evenodd" clip-rule="evenodd" d="M322.077 293.78L342.958 298.136L320.37 377.195C319.34 380.799 315.447 382.75 311.944 381.418C309.075 380.327 307.384 377.353 307.916 374.33L322.077 293.78Z" fill="#D6DCFF"/>
</g>
<g id="Group 81_2">
<path id="Rectangle_3" fill-rule="evenodd" clip-rule="evenodd" d="M470.88 286.78L450 291.136L472.588 370.195C473.617 373.799 477.51 375.75 481.014 374.418C483.883 373.327 485.573 370.353 485.042 367.33L470.88 286.78Z" fill="#D6DCFF"/>
<path id="Rectangle_4" fill-rule="evenodd" clip-rule="evenodd" d="M423.88 313.78L403 318.136L425.588 397.195C426.617 400.799 430.51 402.75 434.014 401.418C436.883 400.327 438.573 397.353 438.042 394.33L423.88 313.78Z" fill="#D6DCFF"/>
</g>
<path id="Path" fill-rule="evenodd" clip-rule="evenodd" d="M234 310.78V288.78H500V310.78C500 322.93 440.454 332.78 367 332.78C293.546 332.78 234 322.93 234 310.78Z" fill="#D6DCFF"/>
<path id="Oval" fill-rule="evenodd" clip-rule="evenodd" d="M367 310.78C440.454 310.78 500 300.93 500 288.78C500 276.63 440.454 266.78 367 266.78C293.546 266.78 234 276.63 234 288.78C234 300.93 293.546 310.78 367 310.78Z" fill="white" stroke="#333333" stroke-width="2" stroke-linecap="round"/>
<path id="Path 344_2" fill-rule="evenodd" clip-rule="evenodd" d="M398.43 240.865L424.113 187.575L378.092 174.744L356.938 215.016L398.43 240.865Z" fill="#FFDC84"/>
<path id="Rectangle_5" d="M329 238.28C329 215.36 347.58 196.78 370.5 196.78C393.42 196.78 412 215.36 412 238.28V284.853C412 289.231 408.451 292.78 404.073 292.78H336.927C332.549 292.78 329 289.231 329 284.853V238.28Z" fill="#333333"/>
<path id="Rectangle_6" d="M316 238.28C316 215.36 334.58 196.78 357.5 196.78C380.42 196.78 399 215.36 399 238.28V284.853C399 289.231 395.451 292.78 391.073 292.78H323.927C319.549 292.78 316 289.231 316 284.853V238.28Z" fill="#D6DCFF"/>
<path id="Rectangle_7" d="M362 220H379V288.5C379 293.194 375.194 297 370.5 297C365.806 297 362 293.194 362 288.5V220Z" fill="white" stroke="#333333" stroke-width="2" stroke-linecap="round" stroke-linejoin="round"/>
<path id="Rectangle_8" d="M333 220H350V288.5C350 293.194 346.194 297 341.5 297C336.806 297 333 293.194 333 288.5V220Z" fill="white" stroke="#333333" stroke-width="2" stroke-linecap="round" stroke-linejoin="round"/>
<path id="Path 345" fill-rule="evenodd" clip-rule="evenodd" d="M460.609 198.285L462.532 210.01L426.739 202.485L421.64 194.9L419.699 197.248C419.699 197.248 414.521 194.443 412 193.26C411.626 193.085 411.245 192.939 410.865 192.818C408.336 192.012 405.939 193.806 404.934 196.263C403.864 198.876 404.49 201.886 406.617 203.744C409.05 205.869 412.169 208.388 413.897 208.963C417.006 209.998 422.249 211.351 422.249 211.351L463.004 227.862C467.335 229.617 472.235 229.272 476.277 226.926C481.52 223.884 484.442 218.007 483.702 211.991L481.685 195.603L460.609 198.285Z" fill="white" stroke="#333333" stroke-width="2" stroke-linecap="round"/>
<path id="Path 346" d="M462.532 210.01L471.687 214.479" stroke="#333333" stroke-width="2" stroke-linecap="round"/>
<path id="Path 347" fill-rule="evenodd" clip-rule="evenodd" d="M373.236 180.883C373.859 181.019 374.431 181.333 374.881 181.785L375.48 182.388C377.286 184.203 377.793 186.939 376.758 189.281L375.75 191.558C374.83 193.639 372.63 194.845 370.381 194.503L369.533 194.373C368.346 194.193 367.335 193.414 366.857 192.313C366.491 191.469 366.473 190.515 366.806 189.658L369.428 182.924C370.021 181.399 371.637 180.533 373.236 180.883Z" fill="white" stroke="#333333" stroke-width="2" stroke-linecap="round"/>
</g>
</g>
</svg>
